<?xml version="1.0" encoding="UTF-8"?>
<svg width="16px" height="20px" viewBox="0 0 16 20" version="1.1" xmlns="http://www.w3.org/2000/svg" xmlns:xlink="http://www.w3.org/1999/xlink">
    <!-- Generator: Sketch 56.2 (81672) - https://sketch.com -->
    <title>Icons/Menu/Bag/no-Active@2x</title>
    <desc>Created with Sketch.</desc>
    <g id="Elements" stroke="none" stroke-width="1" fill="none" fill-rule="evenodd">
        <g id="[Desktop]-Components/Main/Headers/NoUser" transform="translate(-1295.000000, -74.000000)" fill="#333333">
            <g id="Главная-N">
                <g id="Header" transform="translate(120.000000, 62.000000)">
                    <g id="Main-Content">
                        <g id="Right" transform="translate(939.000000, 4.000000)">
                            <g id="Bag" transform="translate(227.000000, 0.000000)">
                                <g id="Basket" transform="translate(5.000000, 0.000000)">
                                    <g id="Icons/Menu/Bag/no-Active" transform="translate(0.000000, 6.000000)">
                                        <g id="Group-3-Copy" transform="translate(4.285714, 1.714286)">
                                            <path d="M2.98681319,18.9995516 L12.9065934,18.9995516 C13.8179506,18.9995516 14.5612548,18.2617597 14.5465334,17.4428166 L12.8697745,7.19346927 L3.21401007,7.19346927 L1.35390801,17.4046483 C1.37607678,18.2901381 2.09812555,18.9995516 2.98681319,18.9995516 Z M12.9065934,19.9920328 L2.98681319,19.9920328 C1.5356454,19.9920328 0.360902256,18.8154012 0.360902256,17.3626983 L0.368936342,17.273765 L2.31179349,6.60829535 C2.35476252,6.37241341 2.56023631,6.20098806 2.8,6.20098806 L13.2914286,6.20098806 C13.5345713,6.20098806 13.7419034,6.37715747 13.7811589,6.61711042 L15.5323642,17.3509054 C15.5668703,18.8024929 14.368443,19.9920328 12.9065934,19.9920328 Z M4.96821862,6.18987768 L3.97573742,6.18987768 L3.97573742,4.42165508 C3.97573742,2.18307547 5.79498606,0.360902256 8.03076923,0.360902256 C10.2665524,0.360902256 12.085801,2.18307547 12.085801,4.42165508 L12.085801,6.18987768 L11.0933198,6.18987768 L11.0933198,4.42165508 C11.0933198,2.73085114 9.71806298,1.35338346 8.03076923,1.35338346 C6.34347548,1.35338346 4.96821862,2.73085114 4.96821862,4.42165508 L4.96821862,6.18987768 Z M5.9010989,10.1580843 C5.62703278,10.1580843 5.4048583,9.93422663 5.4048583,9.65808425 C5.4048583,9.38194188 5.62703278,9.15808425 5.9010989,9.15808425 L10.3846154,9.15808425 C10.6586815,9.15808425 10.880856,9.38194188 10.880856,9.65808425 C10.880856,9.93422663 10.6586815,10.1580843 10.3846154,10.1580843 L5.9010989,10.1580843 Z" id="Combined-Shape"></path>
                                        </g>
                                    </g>
                                </g>
                            </g>
                        </g>
                    </g>
                </g>
            </g>
        </g>
    </g>
</svg>