<?xml version="1.0" encoding="UTF-8" standalone="no"?>
<svg width="110px" height="32px" viewBox="0 0 110 32" version="1.1" xmlns="http://www.w3.org/2000/svg" xmlns:xlink="http://www.w3.org/1999/xlink">
    <!-- Generator: Sketch 46.1 (44463) - http://www.bohemiancoding.com/sketch -->
    <title>Page 1</title>
    <desc>Created with Sketch.</desc>
    <defs>
        <polygon id="path-1" points="17.6717391 0.321072464 17.6717391 16.6488986 0.739391304 16.6488986 0.739391304 0.321072464 17.6717391 0.321072464"></polygon>
    </defs>
    <g id="Page-1" stroke="none" stroke-width="1" fill="none" fill-rule="evenodd">
        <g id="Каталог-Copy-3" transform="translate(-133.000000, -27.000000)">
            <g id="Page-1" transform="translate(133.000000, 27.000000)">
                <path d="M14.9767391,19.521413 C12.9377536,19.521413 11.2845652,17.8642391 11.2845652,15.8292391 C11.2845652,13.7902536 12.9377536,12.1378623 14.9767391,12.1378623 C17.0117391,12.1378623 18.6641304,13.7902536 18.6641304,15.8292391 C18.6641304,17.8642391 17.0117391,19.521413 14.9767391,19.521413 M14.9767391,6.53981884 C13.0541304,6.53981884 11.2686232,7.11692029 9.77724638,8.12206522 C4.7276087,11.4563406 1.40528986,17.1875 1.40528986,23.6822826 C1.40528986,24.6292391 1.48021739,25.5427174 1.61333333,26.4442391 C1.61333333,26.4729348 1.61333333,26.5024275 1.62528986,26.5191667 C1.67072464,26.8132971 1.71695652,27.1082246 1.77514493,27.4031522 C1.78710145,27.4493841 1.78710145,27.4948188 1.82057971,27.5530072 C2.43913043,29.5170652 4.28362319,30.9622101 6.45492754,30.9622101 C8.5815942,30.9622101 10.3838406,29.5880072 11.0478261,27.6980797 C11.5173188,26.1947464 12.9210145,25.1027174 14.5781884,25.1027174 C14.7065217,25.115471 14.8396377,25.115471 14.9767391,25.115471 C20.114058,25.115471 24.2749275,20.9498188 24.2749275,15.8292391 C24.2749275,10.6887319 20.114058,6.53981884 14.9767391,6.53981884" id="Fill-1" fill="#4A90E2"></path>
                <g id="Group-5" transform="translate(0.000000, 0.044080)" fill="#F7AA00">
                    <path d="M9.30719565,2.15687681 C7.78154348,1.14376087 6.09248551,0.4455 4.25436957,0.888688406 C2.6792971,1.2689058 1.27480435,2.35535507 0.554224638,3.81325362 C-0.141644928,5.22093478 -0.175123188,6.92673188 0.413934783,8.37745652 C0.664224638,8.99281884 0.989442029,9.76521014 1.64067391,10.0362246 C2.25284783,10.2912971 2.97900725,10.1239058 3.41502174,9.62332609 C5.08096377,7.71347101 7.03784783,6.06426812 9.21712319,4.74426812 C10.1696594,4.16636957 10.2350217,2.77303623 9.30719565,2.15687681" id="Fill-3"></path>
                </g>
                <path d="M47.571413,26.7571014 C47.571413,27.5422464 47.5490942,28.3273913 47.4143841,29.0224638 C47.1672826,30.210942 46.4052536,31.0407246 44.9919928,31.0407246 C43.3093116,31.0407246 42.3232971,30.0092754 42.0538768,28.5513768 C41.8522101,27.3852174 41.8298913,26.0397101 41.8298913,24.7157246 L41.8298913,23.8413043 L41.8298913,22.7428986 C41.8298913,19.2882609 41.9861232,15.0269565 45.3060507,15.0269565 C46.3151812,15.0269565 46.9209783,15.274058 47.5490942,15.8128986 C49.0739493,17.112971 48.9169203,19.8717391 50.2624275,21.2172464 C50.2847464,21.2395652 50.3078623,21.2618841 50.3301812,21.2618841 C50.486413,21.2618841 50.5541667,20.6114493 50.5541667,20.3651449 L50.5541667,20.1403623 C50.5541667,19.422971 50.5772826,18.7278986 50.5772826,17.9873913 C50.5772826,16.8212319 50.7558333,15.9691304 51.4509058,15.3418116 C51.900471,14.9376812 52.505471,14.7360145 53.0889493,14.7360145 C53.9410507,14.7360145 54.9278623,15.1616667 55.443587,15.7897826 C56.1163406,16.6195652 56.2956884,17.584058 56.2956884,18.8849275 L56.2956884,19.108913 C56.2956884,20.2527536 56.3188043,21.4412319 56.2733696,22.5627536 C56.2279348,23.9760145 56.1609783,25.3215217 55.9824275,26.6901449 C55.6675725,28.8877536 55.0617754,31.1307971 52.505471,31.1307971 C50.4194565,31.1307971 49.6566304,30.3456522 48.9838768,28.2373188 C48.7598913,27.5645652 48.3788768,26.062029 47.9077899,25.5686232 C47.8623551,25.5231884 47.8185145,25.4785507 47.7730797,25.4785507 C47.6383696,25.4785507 47.5490942,25.7256522 47.5490942,26.0397101 L47.571413,26.6000725 L47.571413,26.7571014 Z" id="Fill-6" fill="#4A90E2"></path>
                <g id="Group-10" transform="translate(91.666667, 14.391906)">
                    <mask id="mask-2" fill="white">
                        <use xlink:href="#path-1"></use>
                    </mask>
                    <g id="Clip-9"></g>
                    <path d="M9.2054058,10.7997681 C7.92924638,10.7997681 6.89142029,9.76114493 6.89142029,8.48498551 C6.89142029,7.20882609 7.92924638,6.1702029 9.2054058,6.1702029 C10.4815652,6.1702029 11.5193913,7.20882609 11.5193913,8.48498551 C11.5193913,9.76114493 10.4815652,10.7997681 9.2054058,10.7997681 M14.8911304,2.40708696 C13.3431594,1.06157971 11.2802609,0.321072464 9.21656522,0.321072464 L8.88018841,0.321072464 C6.65946377,0.411144928 4.46185507,1.39795652 2.9362029,3.01208696 C1.54605797,4.49310145 0.739391304,6.48904348 0.739391304,8.52962319 C0.739391304,8.73128986 0.739391304,8.91143478 0.761710145,9.11310145 C0.917942029,11.1536812 1.90475362,13.1057826 3.4304058,14.4728116 C4.95605797,15.8414348 6.97431884,16.6042609 9.01489855,16.6488986 L9.19424638,16.6488986 C11.414971,16.6488986 13.6125797,15.7967971 15.2051884,14.2488261 C16.7523623,12.7462899 17.6722174,10.5933188 17.6722174,8.44034783 L17.6722174,8.12628986 C17.5821449,5.951 16.5283768,3.84186957 14.8911304,2.40708696" id="Fill-8" fill="#4A90E2" mask="url(#mask-2)"></path>
                </g>
                <path d="M83.2751812,22.9326884 C81.9990217,22.9326884 80.9611957,21.8940652 80.9611957,20.6187029 C80.9611957,19.3425435 81.9990217,18.3039203 83.2751812,18.3039203 C84.5513406,18.3039203 85.5891667,19.3425435 85.5891667,20.6187029 C85.5891667,21.8940652 84.5513406,22.9326884 83.2751812,22.9326884 M90.6308333,26.2406594 C90.6308333,16.6866014 86.998442,14.7799348 82.5801087,14.7799348 C79.1031522,14.7799348 75.8740942,17.1800072 75.8740942,26.2860942 L75.8740942,26.936529 C75.8740942,28.327471 76.0749638,30.951529 78.7890942,30.951529 C81.3007609,30.951529 81.5701812,29.8969638 81.9519928,27.5200072 C82.4453986,27.5869638 82.9611232,27.6092826 83.4537319,27.6092826 C83.8801812,27.6092826 84.3066304,27.5869638 84.7099638,27.5423261 C85.2480072,29.7399348 85.6521377,30.951529 87.8505435,30.951529 C90.3622101,30.951529 90.6762681,28.7084855 90.6762681,27.250587 C90.6762681,26.8249348 90.6308333,26.4431232 90.6308333,26.2406594" id="Fill-11" fill="#4A90E2"></path>
                <path d="M32.1677464,22.9326884 C30.891587,22.9326884 29.8537609,21.8940652 29.8537609,20.6187029 C29.8537609,19.3425435 30.891587,18.3039203 32.1677464,18.3039203 C33.4439058,18.3039203 34.4817319,19.3425435 34.4817319,20.6187029 C34.4817319,21.8940652 33.4439058,22.9326884 32.1677464,22.9326884 M39.5233986,26.2406594 C39.5233986,16.6866014 35.8910072,14.7799348 31.4726739,14.7799348 C27.9957174,14.7799348 24.7666594,17.1800072 24.7666594,26.2860942 L24.7666594,26.936529 C24.7666594,28.327471 24.967529,30.951529 27.6816594,30.951529 C30.1933261,30.951529 30.4627464,29.8969638 30.844558,27.5200072 C31.3379638,27.5869638 31.8536884,27.6092826 32.3462971,27.6092826 C32.7727464,27.6092826 33.1991957,27.5869638 33.602529,27.5423261 C34.1405725,29.7399348 34.5447029,30.951529 36.7431087,30.951529 C39.2547754,30.951529 39.5688333,28.7084855 39.5688333,27.250587 C39.5688333,26.8249348 39.5233986,26.4431232 39.5233986,26.2406594" id="Fill-13" fill="#4A90E2"></path>
                <path d="M66.3733623,25.0905217 C65.0972029,25.0905217 64.0593768,24.0518986 64.0593768,22.7757391 C64.0593768,21.4995797 65.0972029,20.4609565 66.3733623,20.4609565 C67.6495217,20.4609565 68.6873478,21.4995797 68.6873478,22.7757391 C68.6873478,24.0518986 67.6495217,25.0905217 66.3733623,25.0905217 M63.1546667,14.5337101 C61.719087,14.5337101 60.2619855,14.713058 59.4760435,15.4982029 C58.6462609,16.3279855 58.5793043,18.2123333 58.5793043,20.1859565 L58.5793043,21.3074783 L58.5793043,22.3166087 C58.5569855,22.9447246 58.5569855,23.6844348 58.5569855,24.424942 C58.5569855,26.4655217 58.623942,28.5738551 58.8933623,29.1796522 C59.2974928,30.1218261 60.1487971,30.8168986 61.3603913,30.9516087 C61.8306812,30.9962464 62.2579275,31.0185652 62.6612609,31.0185652 C63.5133623,31.0185652 64.3208261,30.9516087 65.3522754,30.9516087 L65.8010435,30.9516087 L65.9811884,30.9516087 C68.178,30.9516087 70.1301014,30.0987101 71.7227101,28.5515362 C73.2698841,27.049 74.188942,24.896029 74.188942,22.743058 L74.188942,22.4282029 C73.9545942,16.7368986 69.1536522,14.5337101 63.1546667,14.5337101" id="Fill-15" fill="#4A90E2"></path>
            </g>
        </g>
    </g>
</svg>